<mxfile host="Electron" modified="2024-05-27T23:07:06.232Z" agent="Mozilla/5.0 (Windows NT 10.0; Win64; x64) AppleWebKit/537.36 (KHTML, like Gecko) draw.io/24.4.8 Chrome/124.0.6367.207 Electron/30.0.6 Safari/537.36" etag="oB9iSCCbdsPf6o3bXTgd" version="24.4.8" type="device">
  <diagram name="Page-1" id="rJtAdyn2ItCwGOce5TL7">
    <mxGraphModel dx="3290" dy="2508" grid="1" gridSize="10" guides="1" tooltips="1" connect="1" arrows="1" fold="1" page="1" pageScale="1" pageWidth="850" pageHeight="1100" math="0" shadow="0">
      <root>
        <mxCell id="0" />
        <mxCell id="1" parent="0" />
        <mxCell id="UUSq_2UDcAGou4G-HE2J-80" value="&lt;span style=&quot;color: rgb(35, 47, 62); font-family: &amp;quot;Gloria Hallelujah&amp;quot;; font-size: 14px; font-style: normal; font-variant-ligatures: normal; font-variant-caps: normal; letter-spacing: normal; orphans: 2; text-align: center; text-indent: 0px; text-transform: none; widows: 2; word-spacing: 0px; -webkit-text-stroke-width: 0px; white-space: nowrap; text-decoration-thickness: initial; text-decoration-style: initial; text-decoration-color: initial; float: none; display: inline !important;&quot;&gt;Cloud Native Application&lt;/span&gt;&lt;div style=&quot;forced-color-adjust: none; color: rgb(35, 47, 62); font-family: &amp;quot;Gloria Hallelujah&amp;quot;; font-size: 14px; font-style: normal; font-variant-ligatures: normal; font-variant-caps: normal; letter-spacing: normal; orphans: 2; text-align: center; text-indent: 0px; text-transform: none; widows: 2; word-spacing: 0px; -webkit-text-stroke-width: 0px; white-space: nowrap; text-decoration-thickness: initial; text-decoration-style: initial; text-decoration-color: initial;&quot;&gt;Protection platform&lt;/div&gt;&lt;div style=&quot;forced-color-adjust: none; color: rgb(35, 47, 62); font-family: &amp;quot;Gloria Hallelujah&amp;quot;; font-size: 14px; font-style: normal; font-variant-ligatures: normal; font-variant-caps: normal; letter-spacing: normal; orphans: 2; text-align: center; text-indent: 0px; text-transform: none; widows: 2; word-spacing: 0px; -webkit-text-stroke-width: 0px; white-space: nowrap; text-decoration-thickness: initial; text-decoration-style: initial; text-decoration-color: initial;&quot;&gt;(CNAPP)&lt;/div&gt;" style="shape=trapezoid;perimeter=trapezoidPerimeter;whiteSpace=wrap;html=1;fixedSize=1;rounded=0;dashed=0;strokeColor=none;align=center;verticalAlign=middle;fontFamily=Gloria Hallelujah;fontSource=https%3A%2F%2Ffonts.googleapis.com%2Fcss%3Ffamily%3DGloria%2BHallelujah;fontSize=14;fontStyle=1;labelBackgroundColor=none;fillColor=#FFFFFF;flipV=1;gradientColor=#7ea6e0;size=200;opacity=50;" parent="1" vertex="1">
          <mxGeometry x="-720" y="390" width="640" height="100" as="geometry" />
        </mxCell>
        <mxCell id="UUSq_2UDcAGou4G-HE2J-1" value="AWS - Customer Owned Cloud Accounts" style="rounded=0;whiteSpace=wrap;html=1;sketch=1;hachureGap=4;jiggle=2;curveFitting=1;fontFamily=Architects Daughter;fontSource=https%3A%2F%2Ffonts.googleapis.com%2Fcss%3Ffamily%3DArchitects%2BDaughter;verticalAlign=bottom;fontSize=14;fontStyle=1;labelBackgroundColor=none;" parent="1" vertex="1">
          <mxGeometry x="160" y="190" width="1210" height="830" as="geometry" />
        </mxCell>
        <mxCell id="UUSq_2UDcAGou4G-HE2J-2" value="" style="shape=image;verticalLabelPosition=bottom;labelBackgroundColor=none;verticalAlign=top;aspect=fixed;imageAspect=0;image=https://zeevector.com/wp-content/uploads/Aws-Logo-PNG-White.png;fontStyle=1" parent="1" vertex="1">
          <mxGeometry x="160" y="190" width="65.21" height="41" as="geometry" />
        </mxCell>
        <mxCell id="UUSq_2UDcAGou4G-HE2J-4" value="IAM" style="sketch=0;points=[[0,0,0],[0.25,0,0],[0.5,0,0],[0.75,0,0],[1,0,0],[0,1,0],[0.25,1,0],[0.5,1,0],[0.75,1,0],[1,1,0],[0,0.25,0],[0,0.5,0],[0,0.75,0],[1,0.25,0],[1,0.5,0],[1,0.75,0]];outlineConnect=0;fontColor=#232F3E;fillColor=#DD344C;strokeColor=#ffffff;dashed=0;verticalLabelPosition=bottom;verticalAlign=top;align=center;html=1;fontSize=14;fontStyle=1;aspect=fixed;shape=mxgraph.aws4.resourceIcon;resIcon=mxgraph.aws4.identity_and_access_management;hachureGap=4;jiggle=2;curveFitting=1;fontFamily=Gloria Hallelujah;fontSource=https%3A%2F%2Ffonts.googleapis.com%2Fcss%3Ffamily%3DGloria%2BHallelujah;labelBackgroundColor=none;" parent="1" vertex="1">
          <mxGeometry x="240" y="280" width="78" height="78" as="geometry" />
        </mxCell>
        <mxCell id="UUSq_2UDcAGou4G-HE2J-5" value="Security VPC" style="points=[[0,0],[0.25,0],[0.5,0],[0.75,0],[1,0],[1,0.25],[1,0.5],[1,0.75],[1,1],[0.75,1],[0.5,1],[0.25,1],[0,1],[0,0.75],[0,0.5],[0,0.25]];outlineConnect=0;gradientColor=none;html=1;whiteSpace=wrap;fontSize=14;fontStyle=1;container=1;pointerEvents=0;collapsible=0;recursiveResize=0;shape=mxgraph.aws4.group;grIcon=mxgraph.aws4.group_vpc2;strokeColor=#8C4FFF;fillColor=none;verticalAlign=top;align=left;spacingLeft=30;fontColor=#AAB7B8;dashed=0;sketch=0;hachureGap=4;jiggle=2;curveFitting=1;fontFamily=Architects Daughter;fontSource=https%3A%2F%2Ffonts.googleapis.com%2Fcss%3Ffamily%3DArchitects%2BDaughter;labelBackgroundColor=none;" parent="1" vertex="1">
          <mxGeometry x="240" y="485" width="220" height="350" as="geometry" />
        </mxCell>
        <mxCell id="UUSq_2UDcAGou4G-HE2J-6" value="Transit Gateway" style="sketch=0;points=[[0,0,0],[0.25,0,0],[0.5,0,0],[0.75,0,0],[1,0,0],[0,1,0],[0.25,1,0],[0.5,1,0],[0.75,1,0],[1,1,0],[0,0.25,0],[0,0.5,0],[0,0.75,0],[1,0.25,0],[1,0.5,0],[1,0.75,0]];outlineConnect=0;fontColor=#232F3E;fillColor=#8C4FFF;strokeColor=#ffffff;dashed=0;verticalLabelPosition=bottom;verticalAlign=top;align=center;html=1;fontSize=14;fontStyle=1;aspect=fixed;shape=mxgraph.aws4.resourceIcon;resIcon=mxgraph.aws4.transit_gateway;hachureGap=4;jiggle=2;curveFitting=1;fontFamily=Gloria Hallelujah;fontSource=https%3A%2F%2Ffonts.googleapis.com%2Fcss%3Ffamily%3DGloria%2BHallelujah;labelBackgroundColor=none;" parent="1" vertex="1">
          <mxGeometry x="520" y="621" width="78" height="78" as="geometry" />
        </mxCell>
        <mxCell id="UUSq_2UDcAGou4G-HE2J-7" style="edgeStyle=orthogonalEdgeStyle;rounded=0;hachureGap=4;orthogonalLoop=1;jettySize=auto;html=1;exitX=1;exitY=0.5;exitDx=0;exitDy=0;entryX=0;entryY=0.5;entryDx=0;entryDy=0;entryPerimeter=0;fontFamily=Architects Daughter;fontSource=https%3A%2F%2Ffonts.googleapis.com%2Fcss%3Ffamily%3DArchitects%2BDaughter;fontSize=15;fontColor=#232F3E;fontStyle=1;curved=1;flowAnimation=1;strokeWidth=2;strokeColor=#7F00FF;labelBackgroundColor=none;" parent="1" source="UUSq_2UDcAGou4G-HE2J-5" target="UUSq_2UDcAGou4G-HE2J-6" edge="1">
          <mxGeometry relative="1" as="geometry" />
        </mxCell>
        <mxCell id="UUSq_2UDcAGou4G-HE2J-8" value="On-Premise Environment" style="rounded=0;whiteSpace=wrap;html=1;sketch=1;hachureGap=4;jiggle=2;curveFitting=1;fontFamily=Architects Daughter;fontSource=https%3A%2F%2Ffonts.googleapis.com%2Fcss%3Ffamily%3DArchitects%2BDaughter;fontSize=14;verticalAlign=bottom;fontStyle=1;labelBackgroundColor=none;" parent="1" vertex="1">
          <mxGeometry x="-680" y="659" width="570" height="360" as="geometry" />
        </mxCell>
        <mxCell id="UUSq_2UDcAGou4G-HE2J-14" style="edgeStyle=orthogonalEdgeStyle;curved=1;rounded=0;hachureGap=4;orthogonalLoop=1;jettySize=auto;html=1;strokeColor=#7F00FF;strokeWidth=2;align=center;verticalAlign=middle;fontFamily=Architects Daughter;fontSource=https%3A%2F%2Ffonts.googleapis.com%2Fcss%3Ffamily%3DArchitects%2BDaughter;fontSize=15;fontColor=#232F3E;fontStyle=1;labelBackgroundColor=none;endArrow=classic;flowAnimation=1;entryX=1;entryY=0.25;entryDx=0;entryDy=0;entryPerimeter=0;" parent="1" source="UUSq_2UDcAGou4G-HE2J-9" target="UUSq_2UDcAGou4G-HE2J-6" edge="1">
          <mxGeometry relative="1" as="geometry" />
        </mxCell>
        <mxCell id="UUSq_2UDcAGou4G-HE2J-9" value="Application VPC 01" style="sketch=0;outlineConnect=0;gradientColor=none;html=1;whiteSpace=wrap;fontSize=14;fontStyle=1;shape=mxgraph.aws4.group;grIcon=mxgraph.aws4.group_vpc;strokeColor=#879196;fillColor=none;verticalAlign=top;align=left;spacingLeft=30;fontColor=#879196;dashed=0;hachureGap=4;jiggle=2;curveFitting=1;fontFamily=Architects Daughter;fontSource=https%3A%2F%2Ffonts.googleapis.com%2Fcss%3Ffamily%3DArchitects%2BDaughter;labelBackgroundColor=none;" parent="1" vertex="1">
          <mxGeometry x="700" y="420" width="500" height="230" as="geometry" />
        </mxCell>
        <mxCell id="UUSq_2UDcAGou4G-HE2J-15" style="edgeStyle=orthogonalEdgeStyle;curved=1;rounded=0;hachureGap=4;orthogonalLoop=1;jettySize=auto;html=1;entryX=1;entryY=0.75;entryDx=0;entryDy=0;entryPerimeter=0;strokeColor=#7F00FF;strokeWidth=2;align=center;verticalAlign=middle;fontFamily=Architects Daughter;fontSource=https%3A%2F%2Ffonts.googleapis.com%2Fcss%3Ffamily%3DArchitects%2BDaughter;fontSize=15;fontColor=#232F3E;fontStyle=1;labelBackgroundColor=none;endArrow=classic;flowAnimation=1;" parent="1" source="UUSq_2UDcAGou4G-HE2J-23" target="UUSq_2UDcAGou4G-HE2J-6" edge="1">
          <mxGeometry relative="1" as="geometry">
            <mxPoint x="770" y="795.0000000000002" as="sourcePoint" />
          </mxGeometry>
        </mxCell>
        <mxCell id="UUSq_2UDcAGou4G-HE2J-16" value="NGFW for Cloud" style="shape=image;verticalLabelPosition=bottom;labelBackgroundColor=none;verticalAlign=top;aspect=fixed;imageAspect=0;image=https://www.paloaltonetworks.com/content/dam/pan/en_US/includes/igw/cloud-ngfw/assets/images/overview/circle-logo-1.png;fontSize=14;fontFamily=Gloria Hallelujah;fontSource=https%3A%2F%2Ffonts.googleapis.com%2Fcss%3Ffamily%3DGloria%2BHallelujah;fontStyle=1" parent="1" vertex="1">
          <mxGeometry x="294.77" y="870" width="110.47" height="110" as="geometry" />
        </mxCell>
        <mxCell id="UUSq_2UDcAGou4G-HE2J-21" value="Private subnet" style="points=[[0,0],[0.25,0],[0.5,0],[0.75,0],[1,0],[1,0.25],[1,0.5],[1,0.75],[1,1],[0.75,1],[0.5,1],[0.25,1],[0,1],[0,0.75],[0,0.5],[0,0.25]];outlineConnect=0;gradientColor=none;html=1;whiteSpace=wrap;fontSize=14;fontStyle=1;container=1;pointerEvents=0;collapsible=0;recursiveResize=0;shape=mxgraph.aws4.group;grIcon=mxgraph.aws4.group_security_group;grStroke=0;strokeColor=#00A4A6;fillColor=#E6F6F7;verticalAlign=top;align=left;spacingLeft=30;fontColor=#147EBA;dashed=0;sketch=0;fontFamily=Gloria Hallelujah;fontSource=https%3A%2F%2Ffonts.googleapis.com%2Fcss%3Ffamily%3DGloria%2BHallelujah;labelBackgroundColor=none;" parent="1" vertex="1">
          <mxGeometry x="720" y="460" width="460" height="170" as="geometry" />
        </mxCell>
        <mxCell id="UUSq_2UDcAGou4G-HE2J-17" value="EC2" style="sketch=0;points=[[0,0,0],[0.25,0,0],[0.5,0,0],[0.75,0,0],[1,0,0],[0,1,0],[0.25,1,0],[0.5,1,0],[0.75,1,0],[1,1,0],[0,0.25,0],[0,0.5,0],[0,0.75,0],[1,0.25,0],[1,0.5,0],[1,0.75,0]];outlineConnect=0;fontColor=#232F3E;fillColor=#ED7100;strokeColor=#ffffff;dashed=0;verticalLabelPosition=bottom;verticalAlign=top;align=center;html=1;fontSize=14;fontStyle=1;aspect=fixed;shape=mxgraph.aws4.resourceIcon;resIcon=mxgraph.aws4.ec2;fontFamily=Gloria Hallelujah;fontSource=https%3A%2F%2Ffonts.googleapis.com%2Fcss%3Ffamily%3DGloria%2BHallelujah;labelBackgroundColor=none;" parent="UUSq_2UDcAGou4G-HE2J-21" vertex="1">
          <mxGeometry x="40" y="46" width="78" height="78" as="geometry" />
        </mxCell>
        <mxCell id="UUSq_2UDcAGou4G-HE2J-34" style="edgeStyle=orthogonalEdgeStyle;curved=1;rounded=0;hachureGap=4;orthogonalLoop=1;jettySize=auto;html=1;exitX=1;exitY=0.5;exitDx=0;exitDy=0;exitPerimeter=0;strokeColor=#7F00FF;strokeWidth=2;align=center;verticalAlign=middle;fontFamily=Gloria Hallelujah;fontSource=https%3A%2F%2Ffonts.googleapis.com%2Fcss%3Ffamily%3DGloria%2BHallelujah;fontSize=14;fontColor=#232F3E;fontStyle=1;labelBackgroundColor=none;endArrow=classic;flowAnimation=1;" parent="UUSq_2UDcAGou4G-HE2J-21" source="UUSq_2UDcAGou4G-HE2J-18" target="UUSq_2UDcAGou4G-HE2J-22" edge="1">
          <mxGeometry relative="1" as="geometry" />
        </mxCell>
        <mxCell id="UUSq_2UDcAGou4G-HE2J-18" value="EC2&lt;br&gt;(EKS Node)" style="sketch=0;points=[[0,0,0],[0.25,0,0],[0.5,0,0],[0.75,0,0],[1,0,0],[0,1,0],[0.25,1,0],[0.5,1,0],[0.75,1,0],[1,1,0],[0,0.25,0],[0,0.5,0],[0,0.75,0],[1,0.25,0],[1,0.5,0],[1,0.75,0]];outlineConnect=0;fontColor=#232F3E;fillColor=#ED7100;strokeColor=#ffffff;dashed=0;verticalLabelPosition=bottom;verticalAlign=top;align=center;html=1;fontSize=14;fontStyle=1;aspect=fixed;shape=mxgraph.aws4.resourceIcon;resIcon=mxgraph.aws4.ec2;fontFamily=Gloria Hallelujah;fontSource=https%3A%2F%2Ffonts.googleapis.com%2Fcss%3Ffamily%3DGloria%2BHallelujah;labelBackgroundColor=none;" parent="UUSq_2UDcAGou4G-HE2J-21" vertex="1">
          <mxGeometry x="170" y="46" width="78" height="78" as="geometry" />
        </mxCell>
        <mxCell id="UUSq_2UDcAGou4G-HE2J-22" value="Private Endpoint" style="sketch=0;outlineConnect=0;fontColor=#232F3E;gradientColor=none;fillColor=#8C4FFF;strokeColor=none;dashed=0;verticalLabelPosition=bottom;verticalAlign=top;align=center;html=1;fontSize=14;fontStyle=1;aspect=fixed;pointerEvents=1;shape=mxgraph.aws4.endpoints;fontFamily=Gloria Hallelujah;fontSource=https%3A%2F%2Ffonts.googleapis.com%2Fcss%3Ffamily%3DGloria%2BHallelujah;labelBackgroundColor=none;" parent="UUSq_2UDcAGou4G-HE2J-21" vertex="1">
          <mxGeometry x="350" y="46" width="78" height="78" as="geometry" />
        </mxCell>
        <mxCell id="UUSq_2UDcAGou4G-HE2J-23" value="Application VPC 02" style="sketch=0;outlineConnect=0;gradientColor=none;html=1;whiteSpace=wrap;fontSize=14;fontStyle=1;shape=mxgraph.aws4.group;grIcon=mxgraph.aws4.group_vpc;strokeColor=#879196;fillColor=none;verticalAlign=top;align=left;spacingLeft=30;fontColor=#879196;dashed=0;hachureGap=4;jiggle=2;curveFitting=1;fontFamily=Architects Daughter;fontSource=https%3A%2F%2Ffonts.googleapis.com%2Fcss%3Ffamily%3DArchitects%2BDaughter;labelBackgroundColor=none;" parent="1" vertex="1">
          <mxGeometry x="700" y="680" width="500" height="230" as="geometry" />
        </mxCell>
        <mxCell id="UUSq_2UDcAGou4G-HE2J-24" value="Private subnet" style="points=[[0,0],[0.25,0],[0.5,0],[0.75,0],[1,0],[1,0.25],[1,0.5],[1,0.75],[1,1],[0.75,1],[0.5,1],[0.25,1],[0,1],[0,0.75],[0,0.5],[0,0.25]];outlineConnect=0;gradientColor=none;html=1;whiteSpace=wrap;fontSize=14;fontStyle=1;container=1;pointerEvents=0;collapsible=0;recursiveResize=0;shape=mxgraph.aws4.group;grIcon=mxgraph.aws4.group_security_group;grStroke=0;strokeColor=#00A4A6;fillColor=#E6F6F7;verticalAlign=top;align=left;spacingLeft=30;fontColor=#147EBA;dashed=0;sketch=0;fontFamily=Gloria Hallelujah;fontSource=https%3A%2F%2Ffonts.googleapis.com%2Fcss%3Ffamily%3DGloria%2BHallelujah;labelBackgroundColor=none;" parent="1" vertex="1">
          <mxGeometry x="720" y="720" width="460" height="170" as="geometry" />
        </mxCell>
        <mxCell id="UUSq_2UDcAGou4G-HE2J-25" value="EC2" style="sketch=0;points=[[0,0,0],[0.25,0,0],[0.5,0,0],[0.75,0,0],[1,0,0],[0,1,0],[0.25,1,0],[0.5,1,0],[0.75,1,0],[1,1,0],[0,0.25,0],[0,0.5,0],[0,0.75,0],[1,0.25,0],[1,0.5,0],[1,0.75,0]];outlineConnect=0;fontColor=#232F3E;fillColor=#ED7100;strokeColor=#ffffff;dashed=0;verticalLabelPosition=bottom;verticalAlign=top;align=center;html=1;fontSize=14;fontStyle=1;aspect=fixed;shape=mxgraph.aws4.resourceIcon;resIcon=mxgraph.aws4.ec2;fontFamily=Gloria Hallelujah;fontSource=https%3A%2F%2Ffonts.googleapis.com%2Fcss%3Ffamily%3DGloria%2BHallelujah;labelBackgroundColor=none;" parent="UUSq_2UDcAGou4G-HE2J-24" vertex="1">
          <mxGeometry x="40" y="46" width="78" height="78" as="geometry" />
        </mxCell>
        <mxCell id="UUSq_2UDcAGou4G-HE2J-37" style="edgeStyle=orthogonalEdgeStyle;curved=1;rounded=0;hachureGap=4;orthogonalLoop=1;jettySize=auto;html=1;exitX=1;exitY=0.5;exitDx=0;exitDy=0;exitPerimeter=0;strokeColor=#7F00FF;strokeWidth=2;align=center;verticalAlign=middle;fontFamily=Gloria Hallelujah;fontSource=https%3A%2F%2Ffonts.googleapis.com%2Fcss%3Ffamily%3DGloria%2BHallelujah;fontSize=14;fontColor=#232F3E;fontStyle=1;labelBackgroundColor=none;endArrow=classic;flowAnimation=1;" parent="UUSq_2UDcAGou4G-HE2J-24" source="UUSq_2UDcAGou4G-HE2J-26" target="UUSq_2UDcAGou4G-HE2J-27" edge="1">
          <mxGeometry relative="1" as="geometry" />
        </mxCell>
        <mxCell id="UUSq_2UDcAGou4G-HE2J-26" value="EC2" style="sketch=0;points=[[0,0,0],[0.25,0,0],[0.5,0,0],[0.75,0,0],[1,0,0],[0,1,0],[0.25,1,0],[0.5,1,0],[0.75,1,0],[1,1,0],[0,0.25,0],[0,0.5,0],[0,0.75,0],[1,0.25,0],[1,0.5,0],[1,0.75,0]];outlineConnect=0;fontColor=#232F3E;fillColor=#ED7100;strokeColor=#ffffff;dashed=0;verticalLabelPosition=bottom;verticalAlign=top;align=center;html=1;fontSize=14;fontStyle=1;aspect=fixed;shape=mxgraph.aws4.resourceIcon;resIcon=mxgraph.aws4.ec2;fontFamily=Gloria Hallelujah;fontSource=https%3A%2F%2Ffonts.googleapis.com%2Fcss%3Ffamily%3DGloria%2BHallelujah;labelBackgroundColor=none;" parent="UUSq_2UDcAGou4G-HE2J-24" vertex="1">
          <mxGeometry x="170" y="46" width="78" height="78" as="geometry" />
        </mxCell>
        <mxCell id="UUSq_2UDcAGou4G-HE2J-27" value="Private Endpoint" style="sketch=0;outlineConnect=0;fontColor=#232F3E;gradientColor=none;fillColor=#8C4FFF;strokeColor=none;dashed=0;verticalLabelPosition=bottom;verticalAlign=top;align=center;html=1;fontSize=14;fontStyle=1;aspect=fixed;pointerEvents=1;shape=mxgraph.aws4.endpoints;fontFamily=Gloria Hallelujah;fontSource=https%3A%2F%2Ffonts.googleapis.com%2Fcss%3Ffamily%3DGloria%2BHallelujah;labelBackgroundColor=none;" parent="UUSq_2UDcAGou4G-HE2J-24" vertex="1">
          <mxGeometry x="350" y="46" width="78" height="78" as="geometry" />
        </mxCell>
        <mxCell id="UUSq_2UDcAGou4G-HE2J-96" value="" style="group;fontStyle=1;labelBackgroundColor=none;" parent="UUSq_2UDcAGou4G-HE2J-24" vertex="1" connectable="0">
          <mxGeometry x="230" y="110" width="30" height="30.5" as="geometry" />
        </mxCell>
        <mxCell id="UUSq_2UDcAGou4G-HE2J-97" value="" style="rounded=0;whiteSpace=wrap;html=1;dashed=0;strokeColor=#000000;align=center;verticalAlign=middle;fontFamily=Gloria Hallelujah;fontSource=https%3A%2F%2Ffonts.googleapis.com%2Fcss%3Ffamily%3DGloria%2BHallelujah;fontSize=14;fontColor=#232F3E;fontStyle=1;labelBackgroundColor=none;fillColor=#000000;" parent="UUSq_2UDcAGou4G-HE2J-96" vertex="1">
          <mxGeometry width="30" height="29.737499999999997" as="geometry" />
        </mxCell>
        <mxCell id="UUSq_2UDcAGou4G-HE2J-98" value="" style="shape=image;imageAspect=0;aspect=fixed;verticalLabelPosition=bottom;verticalAlign=top;rounded=1;dashed=0;sketch=1;jiggle=2;curveFitting=1;strokeColor=#000000;align=center;fontFamily=Gloria Hallelujah;fontSource=https%3A%2F%2Ffonts.googleapis.com%2Fcss%3Ffamily%3DGloria%2BHallelujah;fontSize=14;fontColor=#232F3E;fontStyle=1;labelBackgroundColor=none;fillColor=none;image=https://images.crunchbase.com/image/upload/c_pad,f_auto,q_auto:eco,dpr_1/rfuwf3yqq2cermkmrej6;" parent="UUSq_2UDcAGou4G-HE2J-96" vertex="1">
          <mxGeometry x="3.4800000000000004" width="23.025" height="30" as="geometry" />
        </mxCell>
        <mxCell id="UUSq_2UDcAGou4G-HE2J-28" value="Firewall Subnet" style="points=[[0,0],[0.25,0],[0.5,0],[0.75,0],[1,0],[1,0.25],[1,0.5],[1,0.75],[1,1],[0.75,1],[0.5,1],[0.25,1],[0,1],[0,0.75],[0,0.5],[0,0.25]];outlineConnect=0;gradientColor=none;html=1;whiteSpace=wrap;fontSize=14;fontStyle=1;container=1;pointerEvents=0;collapsible=0;recursiveResize=0;shape=mxgraph.aws4.group;grIcon=mxgraph.aws4.group_security_group;grStroke=0;strokeColor=#7AA116;fillColor=#F2F6E8;verticalAlign=top;align=left;spacingLeft=30;fontColor=#248814;dashed=0;sketch=0;fontFamily=Gloria Hallelujah;fontSource=https%3A%2F%2Ffonts.googleapis.com%2Fcss%3Ffamily%3DGloria%2BHallelujah;labelBackgroundColor=none;" parent="1" vertex="1">
          <mxGeometry x="260" y="550" width="180" height="180" as="geometry" />
        </mxCell>
        <mxCell id="UUSq_2UDcAGou4G-HE2J-31" value="NGFW Endpoint" style="sketch=0;outlineConnect=0;fontColor=#232F3E;gradientColor=none;fillColor=#DD344C;strokeColor=none;dashed=0;verticalLabelPosition=bottom;verticalAlign=top;align=center;html=1;fontSize=12;fontStyle=1;aspect=fixed;pointerEvents=1;shape=mxgraph.aws4.network_firewall_endpoints;jiggle=2;curveFitting=1;fontFamily=Gloria Hallelujah;fontSource=https://fonts.googleapis.com/css?family=Gloria+Hallelujah;labelBackgroundColor=none;" parent="UUSq_2UDcAGou4G-HE2J-28" vertex="1">
          <mxGeometry x="55.50999999999999" y="61" width="69" height="69" as="geometry" />
        </mxCell>
        <mxCell id="UUSq_2UDcAGou4G-HE2J-32" style="edgeStyle=orthogonalEdgeStyle;curved=1;rounded=0;hachureGap=4;orthogonalLoop=1;jettySize=auto;html=1;strokeColor=#CC6600;strokeWidth=2;align=center;verticalAlign=middle;fontFamily=Gloria Hallelujah;fontSource=https%3A%2F%2Ffonts.googleapis.com%2Fcss%3Ffamily%3DGloria%2BHallelujah;fontSize=14;fontColor=#232F3E;fontStyle=1;labelBackgroundColor=none;endArrow=classic;flowAnimation=1;startArrow=classic;startFill=1;" parent="1" target="UUSq_2UDcAGou4G-HE2J-16" edge="1">
          <mxGeometry relative="1" as="geometry">
            <mxPoint x="350" y="730" as="sourcePoint" />
            <Array as="points">
              <mxPoint x="350" y="730" />
              <mxPoint x="350" y="730" />
            </Array>
          </mxGeometry>
        </mxCell>
        <mxCell id="UUSq_2UDcAGou4G-HE2J-33" value="S3 Buckets" style="sketch=0;points=[[0,0,0],[0.25,0,0],[0.5,0,0],[0.75,0,0],[1,0,0],[0,1,0],[0.25,1,0],[0.5,1,0],[0.75,1,0],[1,1,0],[0,0.25,0],[0,0.5,0],[0,0.75,0],[1,0.25,0],[1,0.5,0],[1,0.75,0]];outlineConnect=0;fontColor=#232F3E;fillColor=#7AA116;strokeColor=#ffffff;dashed=0;verticalLabelPosition=bottom;verticalAlign=top;align=center;html=1;fontSize=14;fontStyle=1;aspect=fixed;shape=mxgraph.aws4.resourceIcon;resIcon=mxgraph.aws4.s3;fontFamily=Gloria Hallelujah;fontSource=https%3A%2F%2Ffonts.googleapis.com%2Fcss%3Ffamily%3DGloria%2BHallelujah;labelBackgroundColor=none;" parent="1" vertex="1">
          <mxGeometry x="1250" y="506" width="78" height="78" as="geometry" />
        </mxCell>
        <mxCell id="UUSq_2UDcAGou4G-HE2J-35" value="Private&lt;div&gt;Link&lt;/div&gt;" style="edgeStyle=orthogonalEdgeStyle;curved=1;rounded=0;hachureGap=4;orthogonalLoop=1;jettySize=auto;html=1;entryX=0;entryY=0.5;entryDx=0;entryDy=0;entryPerimeter=0;strokeColor=#7F00FF;strokeWidth=2;align=center;verticalAlign=middle;fontFamily=Gloria Hallelujah;fontSource=https%3A%2F%2Ffonts.googleapis.com%2Fcss%3Ffamily%3DGloria%2BHallelujah;fontSize=14;fontColor=#232F3E;fontStyle=1;labelBackgroundColor=none;endArrow=classic;flowAnimation=1;" parent="1" source="UUSq_2UDcAGou4G-HE2J-22" target="UUSq_2UDcAGou4G-HE2J-33" edge="1">
          <mxGeometry relative="1" as="geometry" />
        </mxCell>
        <mxCell id="UUSq_2UDcAGou4G-HE2J-36" value="RDS" style="sketch=0;points=[[0,0,0],[0.25,0,0],[0.5,0,0],[0.75,0,0],[1,0,0],[0,1,0],[0.25,1,0],[0.5,1,0],[0.75,1,0],[1,1,0],[0,0.25,0],[0,0.5,0],[0,0.75,0],[1,0.25,0],[1,0.5,0],[1,0.75,0]];outlineConnect=0;fontColor=#232F3E;fillColor=#C925D1;strokeColor=#ffffff;dashed=0;verticalLabelPosition=bottom;verticalAlign=top;align=center;html=1;fontSize=14;fontStyle=1;aspect=fixed;shape=mxgraph.aws4.resourceIcon;resIcon=mxgraph.aws4.rds;fontFamily=Gloria Hallelujah;fontSource=https%3A%2F%2Ffonts.googleapis.com%2Fcss%3Ffamily%3DGloria%2BHallelujah;labelBackgroundColor=none;" parent="1" vertex="1">
          <mxGeometry x="1250" y="766" width="78" height="78" as="geometry" />
        </mxCell>
        <mxCell id="UUSq_2UDcAGou4G-HE2J-38" style="edgeStyle=orthogonalEdgeStyle;curved=1;rounded=0;hachureGap=4;orthogonalLoop=1;jettySize=auto;html=1;entryX=0;entryY=0.5;entryDx=0;entryDy=0;entryPerimeter=0;strokeColor=#7F00FF;strokeWidth=2;align=center;verticalAlign=middle;fontFamily=Gloria Hallelujah;fontSource=https%3A%2F%2Ffonts.googleapis.com%2Fcss%3Ffamily%3DGloria%2BHallelujah;fontSize=14;fontColor=#232F3E;fontStyle=1;labelBackgroundColor=none;endArrow=classic;flowAnimation=1;" parent="1" source="UUSq_2UDcAGou4G-HE2J-27" target="UUSq_2UDcAGou4G-HE2J-36" edge="1">
          <mxGeometry relative="1" as="geometry" />
        </mxCell>
        <mxCell id="UUSq_2UDcAGou4G-HE2J-40" value="CloudTrial" style="sketch=0;points=[[0,0,0],[0.25,0,0],[0.5,0,0],[0.75,0,0],[1,0,0],[0,1,0],[0.25,1,0],[0.5,1,0],[0.75,1,0],[1,1,0],[0,0.25,0],[0,0.5,0],[0,0.75,0],[1,0.25,0],[1,0.5,0],[1,0.75,0]];points=[[0,0,0],[0.25,0,0],[0.5,0,0],[0.75,0,0],[1,0,0],[0,1,0],[0.25,1,0],[0.5,1,0],[0.75,1,0],[1,1,0],[0,0.25,0],[0,0.5,0],[0,0.75,0],[1,0.25,0],[1,0.5,0],[1,0.75,0]];outlineConnect=0;fontColor=#232F3E;fillColor=#E7157B;strokeColor=#ffffff;dashed=0;verticalLabelPosition=bottom;verticalAlign=top;align=center;html=1;fontSize=14;fontStyle=1;aspect=fixed;shape=mxgraph.aws4.resourceIcon;resIcon=mxgraph.aws4.cloudtrail;fontFamily=Gloria Hallelujah;fontSource=https%3A%2F%2Ffonts.googleapis.com%2Fcss%3Ffamily%3DGloria%2BHallelujah;labelBackgroundColor=none;" parent="1" vertex="1">
          <mxGeometry x="370" y="280" width="78" height="78" as="geometry" />
        </mxCell>
        <mxCell id="UUSq_2UDcAGou4G-HE2J-41" value="S3 Buckets&lt;div&gt;&lt;br&gt;&lt;/div&gt;" style="sketch=0;points=[[0,0,0],[0.25,0,0],[0.5,0,0],[0.75,0,0],[1,0,0],[0,1,0],[0.25,1,0],[0.5,1,0],[0.75,1,0],[1,1,0],[0,0.25,0],[0,0.5,0],[0,0.75,0],[1,0.25,0],[1,0.5,0],[1,0.75,0]];outlineConnect=0;fontColor=#232F3E;fillColor=#7AA116;strokeColor=#ffffff;dashed=0;verticalLabelPosition=bottom;verticalAlign=top;align=center;html=1;fontSize=14;fontStyle=1;aspect=fixed;shape=mxgraph.aws4.resourceIcon;resIcon=mxgraph.aws4.s3;fontFamily=Gloria Hallelujah;fontSource=https%3A%2F%2Ffonts.googleapis.com%2Fcss%3Ffamily%3DGloria%2BHallelujah;labelBackgroundColor=none;" parent="1" vertex="1">
          <mxGeometry x="642" y="280" width="78" height="78" as="geometry" />
        </mxCell>
        <mxCell id="UUSq_2UDcAGou4G-HE2J-42" value="Runtime Analysis" style="edgeStyle=orthogonalEdgeStyle;curved=1;rounded=0;hachureGap=4;orthogonalLoop=1;jettySize=auto;html=1;entryX=1;entryY=0.5;entryDx=0;entryDy=0;entryPerimeter=0;strokeColor=#FF00FF;strokeWidth=2;align=center;verticalAlign=middle;fontFamily=Gloria Hallelujah;fontSource=https%3A%2F%2Ffonts.googleapis.com%2Fcss%3Ffamily%3DGloria%2BHallelujah;fontSize=14;fontColor=#232F3E;fontStyle=1;labelBackgroundColor=none;endArrow=classic;flowAnimation=1;exitX=0.376;exitY=-0.004;exitDx=0;exitDy=0;exitPerimeter=0;" parent="1" source="UUSq_2UDcAGou4G-HE2J-9" target="UUSq_2UDcAGou4G-HE2J-41" edge="1">
          <mxGeometry x="-0.0827" y="21" relative="1" as="geometry">
            <mxPoint as="offset" />
          </mxGeometry>
        </mxCell>
        <mxCell id="UUSq_2UDcAGou4G-HE2J-43" value="CloudWatch&lt;div style=&quot;font-size: 14px;&quot;&gt;&lt;br style=&quot;font-size: 14px;&quot;&gt;&lt;/div&gt;" style="sketch=0;points=[[0,0,0],[0.25,0,0],[0.5,0,0],[0.75,0,0],[1,0,0],[0,1,0],[0.25,1,0],[0.5,1,0],[0.75,1,0],[1,1,0],[0,0.25,0],[0,0.5,0],[0,0.75,0],[1,0.25,0],[1,0.5,0],[1,0.75,0]];points=[[0,0,0],[0.25,0,0],[0.5,0,0],[0.75,0,0],[1,0,0],[0,1,0],[0.25,1,0],[0.5,1,0],[0.75,1,0],[1,1,0],[0,0.25,0],[0,0.5,0],[0,0.75,0],[1,0.25,0],[1,0.5,0],[1,0.75,0]];outlineConnect=0;fontColor=#232F3E;fillColor=#E7157B;strokeColor=#ffffff;dashed=0;verticalLabelPosition=bottom;verticalAlign=top;align=center;html=1;fontSize=14;fontStyle=1;aspect=fixed;shape=mxgraph.aws4.resourceIcon;resIcon=mxgraph.aws4.cloudwatch_2;fontFamily=Gloria Hallelujah;fontSource=https%3A%2F%2Ffonts.googleapis.com%2Fcss%3Ffamily%3DGloria%2BHallelujah;labelBackgroundColor=none;" parent="1" vertex="1">
          <mxGeometry x="520" y="280" width="78" height="78" as="geometry" />
        </mxCell>
        <mxCell id="UUSq_2UDcAGou4G-HE2J-45" value="" style="shape=curlyBracket;whiteSpace=wrap;html=1;rounded=1;labelPosition=left;verticalLabelPosition=middle;align=right;verticalAlign=middle;dashed=0;sketch=1;strokeColor=#000000;fontFamily=Gloria Hallelujah;fontSource=https%3A%2F%2Ffonts.googleapis.com%2Fcss%3Ffamily%3DGloria%2BHallelujah;fontSize=14;fontColor=#000000;fontStyle=1;labelBackgroundColor=none;fillColor=#ED7100;rotation=90;curveFitting=1;jiggle=2;" parent="1" vertex="1">
          <mxGeometry x="615" y="160" width="10" height="200" as="geometry" />
        </mxCell>
        <mxCell id="UUSq_2UDcAGou4G-HE2J-46" value="VPC Flow Log" style="text;html=1;align=center;verticalAlign=middle;whiteSpace=wrap;rounded=0;fontFamily=Gloria Hallelujah;fontSource=https%3A%2F%2Ffonts.googleapis.com%2Fcss%3Ffamily%3DGloria%2BHallelujah;fontSize=14;fontColor=#232F3E;fontStyle=1;labelBackgroundColor=none;" parent="1" vertex="1">
          <mxGeometry x="570" y="220" width="100" height="30" as="geometry" />
        </mxCell>
        <mxCell id="UUSq_2UDcAGou4G-HE2J-47" value="OR" style="text;html=1;align=center;verticalAlign=middle;whiteSpace=wrap;rounded=0;fontFamily=Gloria Hallelujah;fontSource=https%3A%2F%2Ffonts.googleapis.com%2Fcss%3Ffamily%3DGloria%2BHallelujah;fontSize=14;fontColor=#232F3E;fontStyle=1;labelBackgroundColor=none;" parent="1" vertex="1">
          <mxGeometry x="602" y="304" width="40" height="30" as="geometry" />
        </mxCell>
        <mxCell id="UUSq_2UDcAGou4G-HE2J-51" style="edgeStyle=orthogonalEdgeStyle;curved=1;rounded=0;hachureGap=4;orthogonalLoop=1;jettySize=auto;html=1;exitX=0;exitY=0.5;exitDx=0;exitDy=0;exitPerimeter=0;strokeColor=#7F00FF;strokeWidth=2;align=center;verticalAlign=middle;fontFamily=Gloria Hallelujah;fontSource=https%3A%2F%2Ffonts.googleapis.com%2Fcss%3Ffamily%3DGloria%2BHallelujah;fontSize=14;fontColor=#232F3E;fontStyle=1;labelBackgroundColor=none;endArrow=classic;flowAnimation=1;" parent="1" source="UUSq_2UDcAGou4G-HE2J-48" target="UUSq_2UDcAGou4G-HE2J-8" edge="1">
          <mxGeometry relative="1" as="geometry" />
        </mxCell>
        <mxCell id="UUSq_2UDcAGou4G-HE2J-48" value="Direct Connect" style="sketch=0;points=[[0,0,0],[0.25,0,0],[0.5,0,0],[0.75,0,0],[1,0,0],[0,1,0],[0.25,1,0],[0.5,1,0],[0.75,1,0],[1,1,0],[0,0.25,0],[0,0.5,0],[0,0.75,0],[1,0.25,0],[1,0.5,0],[1,0.75,0]];outlineConnect=0;fontColor=#232F3E;fillColor=#8C4FFF;strokeColor=#ffffff;dashed=0;verticalLabelPosition=bottom;verticalAlign=top;align=center;html=1;fontSize=14;fontStyle=1;aspect=fixed;shape=mxgraph.aws4.resourceIcon;resIcon=mxgraph.aws4.direct_connect;fontFamily=Gloria Hallelujah;fontSource=https%3A%2F%2Ffonts.googleapis.com%2Fcss%3Ffamily%3DGloria%2BHallelujah;labelBackgroundColor=none;" parent="1" vertex="1">
          <mxGeometry x="-20" y="800" width="78" height="78" as="geometry" />
        </mxCell>
        <mxCell id="UUSq_2UDcAGou4G-HE2J-49" value="" style="sketch=0;outlineConnect=0;fontColor=#232F3E;gradientColor=none;fillColor=#8C4FFF;strokeColor=none;dashed=0;verticalLabelPosition=bottom;verticalAlign=top;align=center;html=1;fontSize=12;fontStyle=1;aspect=fixed;pointerEvents=1;shape=mxgraph.aws4.gateway;fontFamily=Gloria Hallelujah;fontSource=https%3A%2F%2Ffonts.googleapis.com%2Fcss%3Ffamily%3DGloria%2BHallelujah;labelBackgroundColor=none;" parent="1" vertex="1">
          <mxGeometry x="270" y="760" width="56.51" height="58" as="geometry" />
        </mxCell>
        <mxCell id="UUSq_2UDcAGou4G-HE2J-50" value="Hybrid Cloud&lt;div&gt;Networking&lt;/div&gt;" style="edgeStyle=orthogonalEdgeStyle;curved=1;rounded=0;hachureGap=4;orthogonalLoop=1;jettySize=auto;html=1;entryX=1;entryY=0.5;entryDx=0;entryDy=0;entryPerimeter=0;strokeColor=#7F00FF;strokeWidth=2;align=center;verticalAlign=middle;fontFamily=Gloria Hallelujah;fontSource=https%3A%2F%2Ffonts.googleapis.com%2Fcss%3Ffamily%3DGloria%2BHallelujah;fontSize=14;fontColor=#232F3E;fontStyle=1;labelBackgroundColor=none;endArrow=classic;flowAnimation=1;" parent="1" source="UUSq_2UDcAGou4G-HE2J-49" target="UUSq_2UDcAGou4G-HE2J-48" edge="1">
          <mxGeometry x="-0.031" y="-24" relative="1" as="geometry">
            <mxPoint as="offset" />
          </mxGeometry>
        </mxCell>
        <mxCell id="UUSq_2UDcAGou4G-HE2J-85" style="edgeStyle=orthogonalEdgeStyle;curved=1;rounded=0;hachureGap=4;orthogonalLoop=1;jettySize=auto;html=1;exitX=0.5;exitY=1;exitDx=0;exitDy=0;exitPerimeter=0;entryX=1;entryY=0.25;entryDx=0;entryDy=0;strokeColor=#808080;strokeWidth=2;align=center;verticalAlign=middle;fontFamily=Gloria Hallelujah;fontSource=https%3A%2F%2Ffonts.googleapis.com%2Fcss%3Ffamily%3DGloria%2BHallelujah;fontSize=14;fontColor=#232F3E;fontStyle=1;labelBackgroundColor=none;endArrow=classic;flowAnimation=1;" parent="1" source="UUSq_2UDcAGou4G-HE2J-52" target="UUSq_2UDcAGou4G-HE2J-63" edge="1">
          <mxGeometry relative="1" as="geometry" />
        </mxCell>
        <mxCell id="UUSq_2UDcAGou4G-HE2J-52" value="" style="sketch=0;points=[[0.015,0.015,0],[0.985,0.015,0],[0.985,0.985,0],[0.015,0.985,0],[0.25,0,0],[0.5,0,0],[0.75,0,0],[1,0.25,0],[1,0.5,0],[1,0.75,0],[0.75,1,0],[0.5,1,0],[0.25,1,0],[0,0.75,0],[0,0.5,0],[0,0.25,0]];verticalLabelPosition=bottom;html=1;verticalAlign=top;aspect=fixed;align=center;pointerEvents=1;shape=mxgraph.cisco19.rect;prIcon=firewall;fillColor=#FF8000;strokeColor=#005073;dashed=0;fontFamily=Gloria Hallelujah;fontSource=https%3A%2F%2Ffonts.googleapis.com%2Fcss%3Ffamily%3DGloria%2BHallelujah;fontSize=14;fontColor=#232F3E;fontStyle=1;labelBackgroundColor=none;" parent="1" vertex="1">
          <mxGeometry x="-150" y="630" width="64" height="50" as="geometry" />
        </mxCell>
        <mxCell id="UUSq_2UDcAGou4G-HE2J-53" value="Internal Network" style="sketch=0;outlineConnect=0;gradientColor=none;html=1;whiteSpace=wrap;fontSize=14;fontStyle=1;shape=mxgraph.aws4.group;grIcon=mxgraph.aws4.group_subnet;strokeColor=#879196;fillColor=none;verticalAlign=top;align=left;spacingLeft=30;fontColor=#879196;dashed=0;fontFamily=Gloria Hallelujah;fontSource=https%3A%2F%2Ffonts.googleapis.com%2Fcss%3Ffamily%3DGloria%2BHallelujah;labelBackgroundColor=none;" parent="1" vertex="1">
          <mxGeometry x="-660" y="690" width="250" height="160" as="geometry" />
        </mxCell>
        <mxCell id="UUSq_2UDcAGou4G-HE2J-54" value="DMZ Network" style="sketch=0;outlineConnect=0;gradientColor=none;html=1;whiteSpace=wrap;fontSize=14;fontStyle=1;shape=mxgraph.aws4.group;grIcon=mxgraph.aws4.group_subnet;strokeColor=#879196;fillColor=none;verticalAlign=top;align=left;spacingLeft=30;fontColor=#879196;dashed=0;fontFamily=Gloria Hallelujah;fontSource=https%3A%2F%2Ffonts.googleapis.com%2Fcss%3Ffamily%3DGloria%2BHallelujah;labelBackgroundColor=none;" parent="1" vertex="1">
          <mxGeometry x="-390" y="690" width="250" height="160" as="geometry" />
        </mxCell>
        <mxCell id="UUSq_2UDcAGou4G-HE2J-55" value="Management network" style="sketch=0;outlineConnect=0;gradientColor=none;html=1;whiteSpace=wrap;fontSize=14;fontStyle=1;shape=mxgraph.aws4.group;grIcon=mxgraph.aws4.group_subnet;strokeColor=#879196;fillColor=none;verticalAlign=top;align=left;spacingLeft=30;fontColor=#879196;dashed=0;fontFamily=Gloria Hallelujah;fontSource=https%3A%2F%2Ffonts.googleapis.com%2Fcss%3Ffamily%3DGloria%2BHallelujah;labelBackgroundColor=none;" parent="1" vertex="1">
          <mxGeometry x="-660" y="870" width="250" height="110" as="geometry" />
        </mxCell>
        <mxCell id="UUSq_2UDcAGou4G-HE2J-56" value="Storage" style="shape=cylinder3;whiteSpace=wrap;html=1;boundedLbl=1;backgroundOutline=1;size=15;dashed=0;sketch=1;strokeColor=#000000;align=center;verticalAlign=top;fontFamily=Gloria Hallelujah;fontSource=https%3A%2F%2Ffonts.googleapis.com%2Fcss%3Ffamily%3DGloria%2BHallelujah;fontSize=14;fontColor=#232F3E;fontStyle=1;labelBackgroundColor=none;fillColor=none;curveFitting=1;jiggle=2;" parent="1" vertex="1">
          <mxGeometry x="-360" y="885" width="80" height="80" as="geometry" />
        </mxCell>
        <mxCell id="UUSq_2UDcAGou4G-HE2J-57" value="VM" style="whiteSpace=wrap;html=1;aspect=fixed;dashed=0;sketch=1;strokeColor=#000000;align=center;verticalAlign=middle;fontFamily=Gloria Hallelujah;fontSource=https%3A%2F%2Ffonts.googleapis.com%2Fcss%3Ffamily%3DGloria%2BHallelujah;fontSize=16;fontColor=#232F3E;fontStyle=1;labelBackgroundColor=none;fillColor=default;curveFitting=1;jiggle=2;rounded=1;" parent="1" vertex="1">
          <mxGeometry x="-620" y="742.5" width="65" height="65" as="geometry" />
        </mxCell>
        <mxCell id="UUSq_2UDcAGou4G-HE2J-58" value="VM" style="whiteSpace=wrap;html=1;aspect=fixed;dashed=0;sketch=1;strokeColor=#000000;align=center;verticalAlign=middle;fontFamily=Gloria Hallelujah;fontSource=https%3A%2F%2Ffonts.googleapis.com%2Fcss%3Ffamily%3DGloria%2BHallelujah;fontSize=16;fontColor=#232F3E;fontStyle=1;labelBackgroundColor=none;fillColor=default;curveFitting=1;jiggle=2;rounded=1;" parent="1" vertex="1">
          <mxGeometry x="-520" y="742.5" width="65" height="65" as="geometry" />
        </mxCell>
        <mxCell id="UUSq_2UDcAGou4G-HE2J-59" value="VM" style="whiteSpace=wrap;html=1;aspect=fixed;dashed=0;sketch=1;strokeColor=#000000;align=center;verticalAlign=middle;fontFamily=Gloria Hallelujah;fontSource=https%3A%2F%2Ffonts.googleapis.com%2Fcss%3Ffamily%3DGloria%2BHallelujah;fontSize=16;fontColor=#232F3E;fontStyle=1;labelBackgroundColor=none;fillColor=default;curveFitting=1;jiggle=2;rounded=1;" parent="1" vertex="1">
          <mxGeometry x="-610" y="900" width="65" height="65" as="geometry" />
        </mxCell>
        <mxCell id="UUSq_2UDcAGou4G-HE2J-60" value="VM" style="whiteSpace=wrap;html=1;aspect=fixed;dashed=0;sketch=1;strokeColor=#000000;align=center;verticalAlign=middle;fontFamily=Gloria Hallelujah;fontSource=https%3A%2F%2Ffonts.googleapis.com%2Fcss%3Ffamily%3DGloria%2BHallelujah;fontSize=16;fontColor=#232F3E;fontStyle=1;labelBackgroundColor=none;fillColor=default;curveFitting=1;jiggle=2;rounded=1;" parent="1" vertex="1">
          <mxGeometry x="-510" y="900" width="65" height="65" as="geometry" />
        </mxCell>
        <mxCell id="UUSq_2UDcAGou4G-HE2J-86" style="edgeStyle=orthogonalEdgeStyle;curved=1;rounded=0;hachureGap=4;orthogonalLoop=1;jettySize=auto;html=1;exitX=0;exitY=0.25;exitDx=0;exitDy=0;entryX=1;entryY=0.25;entryDx=0;entryDy=0;strokeColor=#808080;strokeWidth=2;align=center;verticalAlign=middle;fontFamily=Gloria Hallelujah;fontSource=https%3A%2F%2Ffonts.googleapis.com%2Fcss%3Ffamily%3DGloria%2BHallelujah;fontSize=14;fontColor=#232F3E;fontStyle=1;labelBackgroundColor=none;endArrow=classic;flowAnimation=1;" parent="1" source="UUSq_2UDcAGou4G-HE2J-63" target="UUSq_2UDcAGou4G-HE2J-58" edge="1">
          <mxGeometry relative="1" as="geometry" />
        </mxCell>
        <mxCell id="UUSq_2UDcAGou4G-HE2J-63" value="VM" style="whiteSpace=wrap;html=1;aspect=fixed;dashed=0;sketch=1;strokeColor=#000000;align=center;verticalAlign=middle;fontFamily=Gloria Hallelujah;fontSource=https%3A%2F%2Ffonts.googleapis.com%2Fcss%3Ffamily%3DGloria%2BHallelujah;fontSize=16;fontColor=#232F3E;fontStyle=1;labelBackgroundColor=none;fillColor=default;curveFitting=1;jiggle=2;rounded=1;" parent="1" vertex="1">
          <mxGeometry x="-340" y="742.5" width="65" height="65" as="geometry" />
        </mxCell>
        <mxCell id="UUSq_2UDcAGou4G-HE2J-64" value="VM" style="whiteSpace=wrap;html=1;aspect=fixed;dashed=0;sketch=1;strokeColor=#000000;align=center;verticalAlign=middle;fontFamily=Gloria Hallelujah;fontSource=https%3A%2F%2Ffonts.googleapis.com%2Fcss%3Ffamily%3DGloria%2BHallelujah;fontSize=16;fontColor=#232F3E;fontStyle=1;labelBackgroundColor=none;fillColor=default;curveFitting=1;jiggle=2;rounded=1;" parent="1" vertex="1">
          <mxGeometry x="-240" y="742.5" width="65" height="65" as="geometry" />
        </mxCell>
        <mxCell id="UUSq_2UDcAGou4G-HE2J-68" value="API Integration" style="edgeStyle=orthogonalEdgeStyle;curved=1;rounded=0;hachureGap=4;orthogonalLoop=1;jettySize=auto;html=1;exitX=0.96;exitY=0.7;exitDx=0;exitDy=0;exitPerimeter=0;entryX=0;entryY=0.5;entryDx=0;entryDy=0;strokeColor=#808080;strokeWidth=2;align=center;verticalAlign=middle;fontFamily=Gloria Hallelujah;fontSource=https%3A%2F%2Ffonts.googleapis.com%2Fcss%3Ffamily%3DGloria%2BHallelujah;fontSize=14;fontColor=#232F3E;fontStyle=1;labelBackgroundColor=none;endArrow=classic;flowAnimation=1;" parent="1" source="UUSq_2UDcAGou4G-HE2J-66" target="UUSq_2UDcAGou4G-HE2J-2" edge="1">
          <mxGeometry x="0.0629" y="40" relative="1" as="geometry">
            <Array as="points">
              <mxPoint x="50" y="578" />
              <mxPoint x="50" y="210" />
            </Array>
            <mxPoint y="1" as="offset" />
          </mxGeometry>
        </mxCell>
        <mxCell id="UUSq_2UDcAGou4G-HE2J-66" value="Prisma Cloud&lt;br&gt;(SaaS)" style="ellipse;shape=cloud;whiteSpace=wrap;html=1;rounded=1;dashed=0;sketch=1;jiggle=2;curveFitting=1;strokeColor=#000000;align=center;verticalAlign=middle;fontFamily=Gloria Hallelujah;fontSource=https%3A%2F%2Ffonts.googleapis.com%2Fcss%3Ffamily%3DGloria%2BHallelujah;fontSize=16;fontColor=#232F3E;fontStyle=1;labelBackgroundColor=none;fillColor=none;" parent="1" vertex="1">
          <mxGeometry x="-515" y="480" width="220" height="140" as="geometry" />
        </mxCell>
        <mxCell id="UUSq_2UDcAGou4G-HE2J-67" value="" style="shape=image;imageAspect=0;aspect=fixed;verticalLabelPosition=bottom;verticalAlign=top;rounded=1;dashed=0;sketch=1;jiggle=2;curveFitting=1;strokeColor=#000000;align=center;fontFamily=Gloria Hallelujah;fontSource=https%3A%2F%2Ffonts.googleapis.com%2Fcss%3Ffamily%3DGloria%2BHallelujah;fontSize=14;fontColor=#232F3E;fontStyle=1;labelBackgroundColor=none;fillColor=none;image=https://images.crunchbase.com/image/upload/c_pad,f_auto,q_auto:eco,dpr_1/rfuwf3yqq2cermkmrej6;" parent="1" vertex="1">
          <mxGeometry x="-520" y="460" width="69.06" height="90" as="geometry" />
        </mxCell>
        <mxCell id="UUSq_2UDcAGou4G-HE2J-69" value="Vulnerabilities" style="rounded=1;whiteSpace=wrap;html=1;dashed=0;sketch=1;jiggle=2;curveFitting=1;strokeColor=#d79b00;align=center;verticalAlign=middle;fontFamily=Gloria Hallelujah;fontSource=https%3A%2F%2Ffonts.googleapis.com%2Fcss%3Ffamily%3DGloria%2BHallelujah;fontSize=14;fontStyle=1;labelBackgroundColor=none;fillColor=#ffcd28;gradientColor=#ffa500;" parent="1" vertex="1">
          <mxGeometry x="-575" y="-10" width="140" height="60" as="geometry" />
        </mxCell>
        <mxCell id="UUSq_2UDcAGou4G-HE2J-70" value="Compliance" style="rounded=1;whiteSpace=wrap;html=1;dashed=0;sketch=1;jiggle=2;curveFitting=1;strokeColor=#d79b00;align=center;verticalAlign=middle;fontFamily=Gloria Hallelujah;fontSource=https%3A%2F%2Ffonts.googleapis.com%2Fcss%3Ffamily%3DGloria%2BHallelujah;fontSize=14;fontStyle=1;labelBackgroundColor=none;fillColor=#ffcd28;gradientColor=#ffa500;" parent="1" vertex="1">
          <mxGeometry x="-415" y="-10" width="140" height="60" as="geometry" />
        </mxCell>
        <mxCell id="UUSq_2UDcAGou4G-HE2J-71" value="Runtime" style="rounded=1;whiteSpace=wrap;html=1;dashed=0;sketch=1;jiggle=2;curveFitting=1;strokeColor=#d79b00;align=center;verticalAlign=middle;fontFamily=Gloria Hallelujah;fontSource=https%3A%2F%2Ffonts.googleapis.com%2Fcss%3Ffamily%3DGloria%2BHallelujah;fontSize=14;fontStyle=1;labelBackgroundColor=none;fillColor=#ffcd28;gradientColor=#ffa500;" parent="1" vertex="1">
          <mxGeometry x="-255" y="-10" width="140" height="60" as="geometry" />
        </mxCell>
        <mxCell id="UUSq_2UDcAGou4G-HE2J-72" value="Web App&lt;div&gt;API Security&lt;/div&gt;" style="rounded=1;whiteSpace=wrap;html=1;dashed=0;sketch=1;jiggle=2;curveFitting=1;strokeColor=#d79b00;align=center;verticalAlign=middle;fontFamily=Gloria Hallelujah;fontSource=https%3A%2F%2Ffonts.googleapis.com%2Fcss%3Ffamily%3DGloria%2BHallelujah;fontSize=14;fontStyle=1;labelBackgroundColor=none;fillColor=#ffcd28;gradientColor=#ffa500;" parent="1" vertex="1">
          <mxGeometry x="-95" y="-10" width="140" height="60" as="geometry" />
        </mxCell>
        <mxCell id="UUSq_2UDcAGou4G-HE2J-73" value="Cloud" style="rounded=1;whiteSpace=wrap;html=1;dashed=0;sketch=1;jiggle=2;curveFitting=1;strokeColor=#d6b656;align=center;verticalAlign=middle;fontFamily=Gloria Hallelujah;fontSource=https%3A%2F%2Ffonts.googleapis.com%2Fcss%3Ffamily%3DGloria%2BHallelujah;fontSize=14;fontStyle=1;labelBackgroundColor=none;fillColor=#fff2cc;gradientColor=#ffd966;" parent="1" vertex="1">
          <mxGeometry x="-740" y="70" width="140" height="60" as="geometry" />
        </mxCell>
        <mxCell id="UUSq_2UDcAGou4G-HE2J-74" value="Cluster / Host" style="rounded=1;whiteSpace=wrap;html=1;dashed=0;sketch=1;jiggle=2;curveFitting=1;strokeColor=#d6b656;align=center;verticalAlign=middle;fontFamily=Gloria Hallelujah;fontSource=https%3A%2F%2Ffonts.googleapis.com%2Fcss%3Ffamily%3DGloria%2BHallelujah;fontSize=14;fontStyle=1;labelBackgroundColor=none;fillColor=#fff2cc;gradientColor=#ffd966;" parent="1" vertex="1">
          <mxGeometry x="-740" y="150" width="140" height="60" as="geometry" />
        </mxCell>
        <mxCell id="UUSq_2UDcAGou4G-HE2J-75" value="Container" style="rounded=1;whiteSpace=wrap;html=1;dashed=0;sketch=1;jiggle=2;curveFitting=1;strokeColor=#d6b656;align=center;verticalAlign=middle;fontFamily=Gloria Hallelujah;fontSource=https%3A%2F%2Ffonts.googleapis.com%2Fcss%3Ffamily%3DGloria%2BHallelujah;fontSize=14;fontStyle=1;labelBackgroundColor=none;fillColor=#fff2cc;gradientColor=#ffd966;" parent="1" vertex="1">
          <mxGeometry x="-740" y="230" width="140" height="60" as="geometry" />
        </mxCell>
        <mxCell id="UUSq_2UDcAGou4G-HE2J-76" value="Code" style="rounded=1;whiteSpace=wrap;html=1;dashed=0;sketch=1;jiggle=2;curveFitting=1;strokeColor=#d6b656;align=center;verticalAlign=middle;fontFamily=Gloria Hallelujah;fontSource=https%3A%2F%2Ffonts.googleapis.com%2Fcss%3Ffamily%3DGloria%2BHallelujah;fontSize=14;fontStyle=1;labelBackgroundColor=none;fillColor=#fff2cc;gradientColor=#ffd966;" parent="1" vertex="1">
          <mxGeometry x="-740" y="315" width="140" height="60" as="geometry" />
        </mxCell>
        <mxCell id="UUSq_2UDcAGou4G-HE2J-77" value="&lt;div&gt;CSPM / CIEM / DSPM&lt;br&gt;&lt;/div&gt;" style="rounded=1;whiteSpace=wrap;html=1;dashed=0;sketch=1;jiggle=2;curveFitting=1;strokeColor=#82b366;align=center;verticalAlign=middle;fontFamily=Gloria Hallelujah;fontSource=https%3A%2F%2Ffonts.googleapis.com%2Fcss%3Ffamily%3DGloria%2BHallelujah;fontSize=14;fontStyle=1;labelBackgroundColor=none;fillColor=#d5e8d4;" parent="1" vertex="1">
          <mxGeometry x="-575" y="70" width="525" height="60" as="geometry" />
        </mxCell>
        <mxCell id="UUSq_2UDcAGou4G-HE2J-78" value="CWPP&lt;br&gt;&lt;br&gt;(Cloud Workload Protection Platform)&lt;br&gt;&lt;div&gt;&lt;br&gt;&lt;/div&gt;&lt;div&gt;Supporting Both Agent &amp;amp; Agentless Approach&lt;/div&gt;" style="rounded=1;whiteSpace=wrap;html=1;dashed=0;sketch=1;jiggle=2;curveFitting=1;strokeColor=#82b366;align=center;verticalAlign=middle;fontFamily=Gloria Hallelujah;fontSource=https%3A%2F%2Ffonts.googleapis.com%2Fcss%3Ffamily%3DGloria%2BHallelujah;fontSize=14;fontStyle=1;labelBackgroundColor=none;fillColor=#d5e8d4;" parent="1" vertex="1">
          <mxGeometry x="-575" y="150" width="615" height="140" as="geometry" />
        </mxCell>
        <mxCell id="UUSq_2UDcAGou4G-HE2J-79" value="&lt;div&gt;CAS&lt;br&gt;&lt;/div&gt;&lt;div&gt;(Cloud Application Security)&lt;/div&gt;" style="rounded=1;whiteSpace=wrap;html=1;dashed=0;sketch=1;jiggle=2;curveFitting=1;strokeColor=#82b366;align=center;verticalAlign=middle;fontFamily=Gloria Hallelujah;fontSource=https%3A%2F%2Ffonts.googleapis.com%2Fcss%3Ffamily%3DGloria%2BHallelujah;fontSize=14;fontStyle=1;labelBackgroundColor=none;fillColor=#d5e8d4;" parent="1" vertex="1">
          <mxGeometry x="-575" y="315" width="305" height="60" as="geometry" />
        </mxCell>
        <mxCell id="UUSq_2UDcAGou4G-HE2J-81" value="CNCF&lt;div&gt;4C&lt;/div&gt;&lt;div&gt;Security&lt;/div&gt;" style="shape=curlyBracket;whiteSpace=wrap;html=1;rounded=1;labelPosition=left;verticalLabelPosition=middle;align=center;verticalAlign=middle;dashed=0;sketch=1;jiggle=2;curveFitting=1;strokeColor=#000000;fontFamily=Gloria Hallelujah;fontSource=https%3A%2F%2Ffonts.googleapis.com%2Fcss%3Ffamily%3DGloria%2BHallelujah;fontSize=14;fontColor=#232F3E;fontStyle=1;labelBackgroundColor=none;fillColor=none;" parent="1" vertex="1">
          <mxGeometry x="-790" y="70" width="20" height="310" as="geometry" />
        </mxCell>
        <mxCell id="UUSq_2UDcAGou4G-HE2J-82" value="Prisma Cloud Security Protection Area" style="endArrow=classic;startArrow=classic;html=1;rounded=0;hachureGap=4;strokeColor=#7F00FF;strokeWidth=2;align=center;verticalAlign=middle;fontFamily=Gloria Hallelujah;fontSource=https%3A%2F%2Ffonts.googleapis.com%2Fcss%3Ffamily%3DGloria%2BHallelujah;fontSize=14;fontColor=#232F3E;fontStyle=1;labelBackgroundColor=none;edgeStyle=orthogonalEdgeStyle;flowAnimation=1;curved=1;" parent="1" edge="1">
          <mxGeometry width="50" height="50" relative="1" as="geometry">
            <mxPoint x="-575" y="-40" as="sourcePoint" />
            <mxPoint x="40" y="-40" as="targetPoint" />
          </mxGeometry>
        </mxCell>
        <mxCell id="UUSq_2UDcAGou4G-HE2J-83" value="" style="shape=image;imageAspect=0;aspect=fixed;verticalLabelPosition=bottom;verticalAlign=top;rounded=1;dashed=0;sketch=1;jiggle=2;curveFitting=1;strokeColor=#000000;align=center;fontFamily=Gloria Hallelujah;fontSource=https%3A%2F%2Ffonts.googleapis.com%2Fcss%3Ffamily%3DGloria%2BHallelujah;fontSize=14;fontColor=#232F3E;fontStyle=1;labelBackgroundColor=none;fillColor=none;image=https://images.crunchbase.com/image/upload/c_pad,f_auto,q_auto:eco,dpr_1/rfuwf3yqq2cermkmrej6;" parent="1" vertex="1">
          <mxGeometry x="-441.67999999999995" y="-80" width="38.37" height="50" as="geometry" />
        </mxCell>
        <mxCell id="UUSq_2UDcAGou4G-HE2J-87" style="edgeStyle=orthogonalEdgeStyle;curved=1;rounded=0;hachureGap=4;orthogonalLoop=1;jettySize=auto;html=1;exitX=1;exitY=0.75;exitDx=0;exitDy=0;entryX=0;entryY=0.5;entryDx=0;entryDy=0;entryPerimeter=0;strokeColor=#808080;strokeWidth=2;align=center;verticalAlign=middle;fontFamily=Gloria Hallelujah;fontSource=https%3A%2F%2Ffonts.googleapis.com%2Fcss%3Ffamily%3DGloria%2BHallelujah;fontSize=14;fontColor=#232F3E;fontStyle=1;labelBackgroundColor=none;endArrow=classic;flowAnimation=1;" parent="1" source="UUSq_2UDcAGou4G-HE2J-58" target="UUSq_2UDcAGou4G-HE2J-56" edge="1">
          <mxGeometry relative="1" as="geometry" />
        </mxCell>
        <mxCell id="UUSq_2UDcAGou4G-HE2J-90" style="edgeStyle=orthogonalEdgeStyle;curved=1;rounded=0;hachureGap=4;orthogonalLoop=1;jettySize=auto;html=1;strokeColor=#00CC66;strokeWidth=2;align=center;verticalAlign=middle;fontFamily=Gloria Hallelujah;fontSource=https%3A%2F%2Ffonts.googleapis.com%2Fcss%3Ffamily%3DGloria%2BHallelujah;fontSize=14;fontColor=#232F3E;fontStyle=1;labelBackgroundColor=none;endArrow=classic;flowAnimation=1;" parent="1" source="UUSq_2UDcAGou4G-HE2J-88" target="UUSq_2UDcAGou4G-HE2J-31" edge="1">
          <mxGeometry relative="1" as="geometry" />
        </mxCell>
        <mxCell id="UUSq_2UDcAGou4G-HE2J-88" value="Application&lt;div&gt;Users&lt;/div&gt;" style="shape=umlActor;verticalLabelPosition=bottom;verticalAlign=top;html=1;outlineConnect=0;rounded=1;dashed=0;sketch=1;jiggle=2;curveFitting=1;strokeColor=#000000;align=center;fontFamily=Gloria Hallelujah;fontSource=https%3A%2F%2Ffonts.googleapis.com%2Fcss%3Ffamily%3DGloria%2BHallelujah;fontSize=14;fontColor=#232F3E;fontStyle=1;labelBackgroundColor=none;fillColor=none;" parent="1" vertex="1">
          <mxGeometry x="45" y="560" width="40.5" height="81" as="geometry" />
        </mxCell>
        <mxCell id="UUSq_2UDcAGou4G-HE2J-89" style="edgeStyle=orthogonalEdgeStyle;curved=1;rounded=0;hachureGap=4;orthogonalLoop=1;jettySize=auto;html=1;entryX=1;entryY=0.5;entryDx=0;entryDy=0;entryPerimeter=0;strokeColor=#00CC66;strokeWidth=2;align=center;verticalAlign=middle;fontFamily=Gloria Hallelujah;fontSource=https%3A%2F%2Ffonts.googleapis.com%2Fcss%3Ffamily%3DGloria%2BHallelujah;fontSize=14;fontColor=#232F3E;fontStyle=1;labelBackgroundColor=none;endArrow=classic;flowAnimation=1;" parent="1" source="UUSq_2UDcAGou4G-HE2J-88" target="UUSq_2UDcAGou4G-HE2J-52" edge="1">
          <mxGeometry relative="1" as="geometry" />
        </mxCell>
        <mxCell id="UUSq_2UDcAGou4G-HE2J-94" value="" style="group;fontStyle=1;labelBackgroundColor=none;" parent="1" vertex="1" connectable="0">
          <mxGeometry x="-295" y="789.75" width="30" height="30.5" as="geometry" />
        </mxCell>
        <mxCell id="UUSq_2UDcAGou4G-HE2J-92" value="" style="rounded=0;whiteSpace=wrap;html=1;dashed=0;strokeColor=#000000;align=center;verticalAlign=middle;fontFamily=Gloria Hallelujah;fontSource=https%3A%2F%2Ffonts.googleapis.com%2Fcss%3Ffamily%3DGloria%2BHallelujah;fontSize=14;fontColor=#232F3E;fontStyle=1;labelBackgroundColor=none;fillColor=#000000;" parent="UUSq_2UDcAGou4G-HE2J-94" vertex="1">
          <mxGeometry width="30" height="29.737499999999997" as="geometry" />
        </mxCell>
        <mxCell id="UUSq_2UDcAGou4G-HE2J-91" value="" style="shape=image;imageAspect=0;aspect=fixed;verticalLabelPosition=bottom;verticalAlign=top;rounded=1;dashed=0;sketch=1;jiggle=2;curveFitting=1;strokeColor=#000000;align=center;fontFamily=Gloria Hallelujah;fontSource=https%3A%2F%2Ffonts.googleapis.com%2Fcss%3Ffamily%3DGloria%2BHallelujah;fontSize=14;fontColor=#232F3E;fontStyle=1;labelBackgroundColor=none;fillColor=none;image=https://images.crunchbase.com/image/upload/c_pad,f_auto,q_auto:eco,dpr_1/rfuwf3yqq2cermkmrej6;" parent="UUSq_2UDcAGou4G-HE2J-94" vertex="1">
          <mxGeometry x="3.4800000000000004" width="23.025" height="30" as="geometry" />
        </mxCell>
        <mxCell id="UUSq_2UDcAGou4G-HE2J-100" style="edgeStyle=orthogonalEdgeStyle;curved=1;rounded=0;hachureGap=4;orthogonalLoop=1;jettySize=auto;html=1;exitX=0;exitY=0.5;exitDx=0;exitDy=0;entryX=0.5;entryY=1;entryDx=0;entryDy=0;strokeColor=#000000;strokeWidth=1;align=center;verticalAlign=middle;fontFamily=Gloria Hallelujah;fontSource=https%3A%2F%2Ffonts.googleapis.com%2Fcss%3Ffamily%3DGloria%2BHallelujah;fontSize=14;fontColor=#232F3E;fontStyle=1;labelBackgroundColor=none;endArrow=classic;flowAnimation=0;sketch=1;curveFitting=1;jiggle=2;" parent="1" source="UUSq_2UDcAGou4G-HE2J-99" target="UUSq_2UDcAGou4G-HE2J-97" edge="1">
          <mxGeometry relative="1" as="geometry" />
        </mxCell>
        <mxCell id="UUSq_2UDcAGou4G-HE2J-99" value="Agent Base CWPP Protection" style="text;html=1;align=center;verticalAlign=middle;whiteSpace=wrap;rounded=0;fontFamily=Gloria Hallelujah;fontSource=https%3A%2F%2Ffonts.googleapis.com%2Fcss%3Ffamily%3DGloria%2BHallelujah;fontSize=14;fontColor=#232F3E;fontStyle=1;labelBackgroundColor=none;" parent="1" vertex="1">
          <mxGeometry x="1030" y="935" width="120" height="30" as="geometry" />
        </mxCell>
        <mxCell id="UUSq_2UDcAGou4G-HE2J-101" value="" style="group;fontStyle=1;labelBackgroundColor=none;" parent="1" vertex="1" connectable="0">
          <mxGeometry x="300" y="260" width="30" height="30.5" as="geometry" />
        </mxCell>
        <mxCell id="UUSq_2UDcAGou4G-HE2J-102" value="" style="rounded=0;whiteSpace=wrap;html=1;dashed=0;strokeColor=#000000;align=center;verticalAlign=middle;fontFamily=Gloria Hallelujah;fontSource=https%3A%2F%2Ffonts.googleapis.com%2Fcss%3Ffamily%3DGloria%2BHallelujah;fontSize=14;fontColor=#232F3E;fontStyle=1;labelBackgroundColor=none;fillColor=#000000;" parent="UUSq_2UDcAGou4G-HE2J-101" vertex="1">
          <mxGeometry width="30" height="29.737499999999997" as="geometry" />
        </mxCell>
        <mxCell id="UUSq_2UDcAGou4G-HE2J-103" value="" style="shape=image;imageAspect=0;aspect=fixed;verticalLabelPosition=bottom;verticalAlign=top;rounded=1;dashed=0;sketch=1;jiggle=2;curveFitting=1;strokeColor=#000000;align=center;fontFamily=Gloria Hallelujah;fontSource=https%3A%2F%2Ffonts.googleapis.com%2Fcss%3Ffamily%3DGloria%2BHallelujah;fontSize=14;fontColor=#232F3E;fontStyle=1;labelBackgroundColor=none;fillColor=none;image=https://images.crunchbase.com/image/upload/c_pad,f_auto,q_auto:eco,dpr_1/rfuwf3yqq2cermkmrej6;" parent="UUSq_2UDcAGou4G-HE2J-101" vertex="1">
          <mxGeometry x="3.4800000000000004" width="23.025" height="30" as="geometry" />
        </mxCell>
        <mxCell id="UUSq_2UDcAGou4G-HE2J-105" style="edgeStyle=orthogonalEdgeStyle;curved=1;rounded=0;sketch=1;hachureGap=4;jiggle=2;curveFitting=1;orthogonalLoop=1;jettySize=auto;html=1;entryX=0.5;entryY=0;entryDx=0;entryDy=0;strokeColor=#000000;strokeWidth=1;align=center;verticalAlign=middle;fontFamily=Gloria Hallelujah;fontSource=https%3A%2F%2Ffonts.googleapis.com%2Fcss%3Ffamily%3DGloria%2BHallelujah;fontSize=14;fontColor=#232F3E;fontStyle=1;labelBackgroundColor=none;endArrow=classic;flowAnimation=0;" parent="1" source="UUSq_2UDcAGou4G-HE2J-104" target="UUSq_2UDcAGou4G-HE2J-103" edge="1">
          <mxGeometry relative="1" as="geometry" />
        </mxCell>
        <mxCell id="UUSq_2UDcAGou4G-HE2J-104" value="IAM Security" style="text;html=1;align=center;verticalAlign=middle;whiteSpace=wrap;rounded=0;fontFamily=Gloria Hallelujah;fontSource=https%3A%2F%2Ffonts.googleapis.com%2Fcss%3Ffamily%3DGloria%2BHallelujah;fontSize=14;fontColor=#232F3E;fontStyle=1;labelBackgroundColor=none;" parent="1" vertex="1">
          <mxGeometry x="358" y="210" width="62" height="30" as="geometry" />
        </mxCell>
        <mxCell id="UUSq_2UDcAGou4G-HE2J-107" style="edgeStyle=orthogonalEdgeStyle;curved=1;rounded=0;sketch=1;hachureGap=4;jiggle=2;curveFitting=1;orthogonalLoop=1;jettySize=auto;html=1;entryX=0.5;entryY=0;entryDx=0;entryDy=0;strokeColor=#000000;strokeWidth=1;align=center;verticalAlign=middle;fontFamily=Gloria Hallelujah;fontSource=https%3A%2F%2Ffonts.googleapis.com%2Fcss%3Ffamily%3DGloria%2BHallelujah;fontSize=14;fontColor=#232F3E;fontStyle=1;labelBackgroundColor=none;endArrow=classic;flowAnimation=0;" parent="1" source="UUSq_2UDcAGou4G-HE2J-106" target="UUSq_2UDcAGou4G-HE2J-2" edge="1">
          <mxGeometry relative="1" as="geometry" />
        </mxCell>
        <mxCell id="UUSq_2UDcAGou4G-HE2J-106" value="CSPM" style="text;html=1;align=center;verticalAlign=middle;whiteSpace=wrap;rounded=0;fontFamily=Gloria Hallelujah;fontSource=https%3A%2F%2Ffonts.googleapis.com%2Fcss%3Ffamily%3DGloria%2BHallelujah;fontSize=14;fontColor=#232F3E;fontStyle=1;labelBackgroundColor=none;" parent="1" vertex="1">
          <mxGeometry x="240" y="110" width="62" height="30" as="geometry" />
        </mxCell>
        <mxCell id="UUSq_2UDcAGou4G-HE2J-110" style="edgeStyle=orthogonalEdgeStyle;curved=1;rounded=0;sketch=1;hachureGap=4;jiggle=2;curveFitting=1;orthogonalLoop=1;jettySize=auto;html=1;strokeColor=#000000;strokeWidth=1;align=center;verticalAlign=middle;fontFamily=Gloria Hallelujah;fontSource=https%3A%2F%2Ffonts.googleapis.com%2Fcss%3Ffamily%3DGloria%2BHallelujah;fontSize=14;fontColor=#232F3E;fontStyle=1;labelBackgroundColor=none;endArrow=classic;flowAnimation=0;" parent="1" source="UUSq_2UDcAGou4G-HE2J-109" target="UUSq_2UDcAGou4G-HE2J-33" edge="1">
          <mxGeometry relative="1" as="geometry" />
        </mxCell>
        <mxCell id="UUSq_2UDcAGou4G-HE2J-109" value="Data Security" style="text;html=1;align=center;verticalAlign=middle;whiteSpace=wrap;rounded=0;fontFamily=Gloria Hallelujah;fontSource=https%3A%2F%2Ffonts.googleapis.com%2Fcss%3Ffamily%3DGloria%2BHallelujah;fontSize=14;fontColor=#232F3E;fontStyle=1;labelBackgroundColor=none;" parent="1" vertex="1">
          <mxGeometry x="1258" y="410" width="62" height="30" as="geometry" />
        </mxCell>
        <mxCell id="UUSq_2UDcAGou4G-HE2J-111" value="" style="group;fontStyle=1;labelBackgroundColor=none;" parent="1" vertex="1" connectable="0">
          <mxGeometry x="1310" y="480" width="30" height="30.5" as="geometry" />
        </mxCell>
        <mxCell id="UUSq_2UDcAGou4G-HE2J-112" value="" style="rounded=0;whiteSpace=wrap;html=1;dashed=0;strokeColor=#000000;align=center;verticalAlign=middle;fontFamily=Gloria Hallelujah;fontSource=https%3A%2F%2Ffonts.googleapis.com%2Fcss%3Ffamily%3DGloria%2BHallelujah;fontSize=14;fontColor=#232F3E;fontStyle=1;labelBackgroundColor=none;fillColor=#000000;" parent="UUSq_2UDcAGou4G-HE2J-111" vertex="1">
          <mxGeometry width="30" height="29.737499999999997" as="geometry" />
        </mxCell>
        <mxCell id="UUSq_2UDcAGou4G-HE2J-113" value="" style="shape=image;imageAspect=0;aspect=fixed;verticalLabelPosition=bottom;verticalAlign=top;rounded=1;dashed=0;sketch=1;jiggle=2;curveFitting=1;strokeColor=#000000;align=center;fontFamily=Gloria Hallelujah;fontSource=https%3A%2F%2Ffonts.googleapis.com%2Fcss%3Ffamily%3DGloria%2BHallelujah;fontSize=14;fontColor=#232F3E;fontStyle=1;labelBackgroundColor=none;fillColor=none;image=https://images.crunchbase.com/image/upload/c_pad,f_auto,q_auto:eco,dpr_1/rfuwf3yqq2cermkmrej6;" parent="UUSq_2UDcAGou4G-HE2J-111" vertex="1">
          <mxGeometry x="3.4800000000000004" width="23.025" height="30" as="geometry" />
        </mxCell>
        <mxCell id="UUSq_2UDcAGou4G-HE2J-114" value="Code Pipeline" style="sketch=0;points=[[0,0,0],[0.25,0,0],[0.5,0,0],[0.75,0,0],[1,0,0],[0,1,0],[0.25,1,0],[0.5,1,0],[0.75,1,0],[1,1,0],[0,0.25,0],[0,0.5,0],[0,0.75,0],[1,0.25,0],[1,0.5,0],[1,0.75,0]];outlineConnect=0;fontColor=#232F3E;fillColor=#C925D1;strokeColor=#ffffff;dashed=0;verticalLabelPosition=bottom;verticalAlign=top;align=center;html=1;fontSize=14;fontStyle=1;aspect=fixed;shape=mxgraph.aws4.resourceIcon;resIcon=mxgraph.aws4.codepipeline;rounded=1;jiggle=2;curveFitting=1;fontFamily=Gloria Hallelujah;fontSource=https%3A%2F%2Ffonts.googleapis.com%2Fcss%3Ffamily%3DGloria%2BHallelujah;labelBackgroundColor=none;" parent="1" vertex="1">
          <mxGeometry x="1051" y="280" width="78" height="78" as="geometry" />
        </mxCell>
        <mxCell id="UUSq_2UDcAGou4G-HE2J-116" value="" style="group;fontStyle=1;labelBackgroundColor=none;" parent="1" vertex="1" connectable="0">
          <mxGeometry x="1110" y="260" width="30" height="30.5" as="geometry" />
        </mxCell>
        <mxCell id="UUSq_2UDcAGou4G-HE2J-117" value="" style="rounded=0;whiteSpace=wrap;html=1;dashed=0;strokeColor=#000000;align=center;verticalAlign=middle;fontFamily=Gloria Hallelujah;fontSource=https%3A%2F%2Ffonts.googleapis.com%2Fcss%3Ffamily%3DGloria%2BHallelujah;fontSize=14;fontColor=#232F3E;fontStyle=1;labelBackgroundColor=none;fillColor=#000000;" parent="UUSq_2UDcAGou4G-HE2J-116" vertex="1">
          <mxGeometry width="30" height="29.737499999999997" as="geometry" />
        </mxCell>
        <mxCell id="UUSq_2UDcAGou4G-HE2J-118" value="" style="shape=image;imageAspect=0;aspect=fixed;verticalLabelPosition=bottom;verticalAlign=top;rounded=1;dashed=0;sketch=1;jiggle=2;curveFitting=1;strokeColor=#000000;align=center;fontFamily=Gloria Hallelujah;fontSource=https%3A%2F%2Ffonts.googleapis.com%2Fcss%3Ffamily%3DGloria%2BHallelujah;fontSize=14;fontColor=#232F3E;fontStyle=1;labelBackgroundColor=none;fillColor=none;image=https://images.crunchbase.com/image/upload/c_pad,f_auto,q_auto:eco,dpr_1/rfuwf3yqq2cermkmrej6;" parent="UUSq_2UDcAGou4G-HE2J-116" vertex="1">
          <mxGeometry x="3.4800000000000004" width="23.025" height="30" as="geometry" />
        </mxCell>
        <mxCell id="UUSq_2UDcAGou4G-HE2J-121" style="edgeStyle=orthogonalEdgeStyle;curved=1;rounded=0;sketch=1;hachureGap=4;jiggle=2;curveFitting=1;orthogonalLoop=1;jettySize=auto;html=1;exitX=0.5;exitY=1;exitDx=0;exitDy=0;entryX=1;entryY=0.75;entryDx=0;entryDy=0;strokeColor=#000000;strokeWidth=1;align=center;verticalAlign=middle;fontFamily=Gloria Hallelujah;fontSource=https%3A%2F%2Ffonts.googleapis.com%2Fcss%3Ffamily%3DGloria%2BHallelujah;fontSize=14;fontColor=#232F3E;fontStyle=1;labelBackgroundColor=none;endArrow=classic;flowAnimation=0;entryPerimeter=0;" parent="1" source="UUSq_2UDcAGou4G-HE2J-120" target="UUSq_2UDcAGou4G-HE2J-114" edge="1">
          <mxGeometry relative="1" as="geometry" />
        </mxCell>
        <mxCell id="UUSq_2UDcAGou4G-HE2J-120" value="Code&lt;div&gt;Security&lt;/div&gt;" style="text;html=1;align=center;verticalAlign=middle;whiteSpace=wrap;rounded=0;fontFamily=Gloria Hallelujah;fontSource=https%3A%2F%2Ffonts.googleapis.com%2Fcss%3Ffamily%3DGloria%2BHallelujah;fontSize=14;fontColor=#232F3E;fontStyle=1;labelBackgroundColor=none;" parent="1" vertex="1">
          <mxGeometry x="1180" y="220" width="62" height="30" as="geometry" />
        </mxCell>
        <mxCell id="UUSq_2UDcAGou4G-HE2J-122" value="CI/CD" style="edgeStyle=orthogonalEdgeStyle;curved=1;rounded=0;hachureGap=4;orthogonalLoop=1;jettySize=auto;html=1;exitX=0;exitY=0.75;exitDx=0;exitDy=0;exitPerimeter=0;entryX=0.75;entryY=0;entryDx=0;entryDy=0;entryPerimeter=0;strokeColor=#FF00FF;strokeWidth=2;align=center;verticalAlign=middle;fontFamily=Gloria Hallelujah;fontSource=https%3A%2F%2Ffonts.googleapis.com%2Fcss%3Ffamily%3DGloria%2BHallelujah;fontSize=14;fontColor=#232F3E;fontStyle=1;labelBackgroundColor=none;endArrow=classic;flowAnimation=1;" parent="1" source="UUSq_2UDcAGou4G-HE2J-114" target="UUSq_2UDcAGou4G-HE2J-18" edge="1">
          <mxGeometry x="0.1405" y="21" relative="1" as="geometry">
            <mxPoint y="1" as="offset" />
          </mxGeometry>
        </mxCell>
        <mxCell id="UUSq_2UDcAGou4G-HE2J-124" style="edgeStyle=orthogonalEdgeStyle;curved=1;rounded=0;sketch=1;hachureGap=4;jiggle=2;curveFitting=1;orthogonalLoop=1;jettySize=auto;html=1;strokeColor=#000000;strokeWidth=1;align=center;verticalAlign=middle;fontFamily=Gloria Hallelujah;fontSource=https%3A%2F%2Ffonts.googleapis.com%2Fcss%3Ffamily%3DGloria%2BHallelujah;fontSize=14;fontColor=#232F3E;fontStyle=1;labelBackgroundColor=none;endArrow=classic;flowAnimation=0;" parent="1" source="UUSq_2UDcAGou4G-HE2J-123" edge="1">
          <mxGeometry relative="1" as="geometry">
            <mxPoint x="-280" y="820" as="targetPoint" />
          </mxGeometry>
        </mxCell>
        <mxCell id="UUSq_2UDcAGou4G-HE2J-123" value="Agent Base CWPP Protection" style="text;html=1;align=center;verticalAlign=middle;whiteSpace=wrap;rounded=0;fontFamily=Gloria Hallelujah;fontSource=https%3A%2F%2Ffonts.googleapis.com%2Fcss%3Ffamily%3DGloria%2BHallelujah;fontSize=14;fontColor=#232F3E;fontStyle=1;labelBackgroundColor=none;" parent="1" vertex="1">
          <mxGeometry x="-240" y="878" width="75" height="30" as="geometry" />
        </mxCell>
      </root>
    </mxGraphModel>
  </diagram>
</mxfile>
